<mxfile host="Electron" modified="2024-05-16T06:43:56.583Z" agent="Mozilla/5.0 (Windows NT 10.0; Win64; x64) AppleWebKit/537.36 (KHTML, like Gecko) draw.io/24.4.0 Chrome/120.0.6099.109 Electron/28.1.0 Safari/537.36" etag="HYo2QjtsoBP6mmOO03Pv" version="24.4.0" type="device">
  <diagram name="1 oldal" id="ZD8D7EKZwLLBBANSnkJV">
    <mxGraphModel dx="1098" dy="868" grid="1" gridSize="10" guides="1" tooltips="1" connect="1" arrows="1" fold="1" page="1" pageScale="1" pageWidth="1600" pageHeight="900" math="0" shadow="0">
      <root>
        <mxCell id="0" />
        <mxCell id="1" parent="0" />
        <mxCell id="h78YweyeBX8pJEGmDvfS-7" style="rounded=0;orthogonalLoop=1;jettySize=auto;html=1;entryX=0;entryY=0.5;entryDx=0;entryDy=0;endArrow=none;endFill=0;exitX=0.75;exitY=0.25;exitDx=0;exitDy=0;exitPerimeter=0;" parent="1" source="h78YweyeBX8pJEGmDvfS-1" target="h78YweyeBX8pJEGmDvfS-2" edge="1">
          <mxGeometry relative="1" as="geometry" />
        </mxCell>
        <mxCell id="h78YweyeBX8pJEGmDvfS-8" style="rounded=0;orthogonalLoop=1;jettySize=auto;html=1;entryX=0;entryY=0.5;entryDx=0;entryDy=0;endArrow=none;endFill=0;" parent="1" source="h78YweyeBX8pJEGmDvfS-1" target="h78YweyeBX8pJEGmDvfS-5" edge="1">
          <mxGeometry relative="1" as="geometry" />
        </mxCell>
        <mxCell id="h78YweyeBX8pJEGmDvfS-9" style="rounded=0;orthogonalLoop=1;jettySize=auto;html=1;exitX=1;exitY=0.75;exitDx=0;exitDy=0;entryX=0;entryY=0.5;entryDx=0;entryDy=0;endArrow=none;endFill=0;" parent="1" source="h78YweyeBX8pJEGmDvfS-1" target="h78YweyeBX8pJEGmDvfS-6" edge="1">
          <mxGeometry relative="1" as="geometry" />
        </mxCell>
        <mxCell id="h78YweyeBX8pJEGmDvfS-1" value="&lt;div style=&quot;text-align: left;&quot;&gt;&lt;font&gt;&lt;br&gt;&lt;/font&gt;&lt;/div&gt;&lt;font&gt;&lt;div style=&quot;text-align: left;&quot;&gt;&lt;font&gt;&lt;br&gt;&lt;/font&gt;&lt;/div&gt;&lt;div style=&quot;text-align: left;&quot;&gt;&lt;font&gt;&lt;br&gt;&lt;/font&gt;&lt;/div&gt;&lt;div style=&quot;text-align: left;&quot;&gt;&lt;font&gt;&lt;br&gt;&lt;/font&gt;&lt;/div&gt;&lt;div style=&quot;text-align: left;&quot;&gt;&lt;span style=&quot;background-color: initial;&quot;&gt;&lt;br&gt;&lt;/span&gt;&lt;/div&gt;&lt;div style=&quot;text-align: left;&quot;&gt;&lt;span style=&quot;background-color: initial;&quot;&gt;&lt;br&gt;&lt;/span&gt;&lt;/div&gt;&lt;div style=&quot;text-align: left;&quot;&gt;Alkalmazott&lt;/div&gt;&lt;/font&gt;" style="shape=actor;whiteSpace=wrap;html=1;fontFamily=Computer Modern;fontStyle=1" parent="1" vertex="1">
          <mxGeometry x="40" y="140" width="40" height="60" as="geometry" />
        </mxCell>
        <mxCell id="h78YweyeBX8pJEGmDvfS-11" value="&lt;font style=&quot;font-size: 12px;&quot; face=&quot;Computer Modern&quot;&gt;&amp;lt;&amp;lt;precedes&amp;gt;&amp;gt;&lt;/font&gt;" style="rounded=0;orthogonalLoop=1;jettySize=auto;html=1;exitX=1;exitY=0.5;exitDx=0;exitDy=0;entryX=0;entryY=0.5;entryDx=0;entryDy=0;endArrow=open;endFill=0;dashed=1;" parent="1" source="h78YweyeBX8pJEGmDvfS-2" target="h78YweyeBX8pJEGmDvfS-10" edge="1">
          <mxGeometry relative="1" as="geometry" />
        </mxCell>
        <mxCell id="h78YweyeBX8pJEGmDvfS-2" value="Filmek listázása" style="ellipse;whiteSpace=wrap;html=1;fontFamily=Computer Modern;fontStyle=1" parent="1" vertex="1">
          <mxGeometry x="160" y="40" width="120" height="60" as="geometry" />
        </mxCell>
        <mxCell id="h78YweyeBX8pJEGmDvfS-5" value="Előadások listázása és kiválasztása" style="ellipse;whiteSpace=wrap;html=1;fontFamily=Computer Modern;fontStyle=1" parent="1" vertex="1">
          <mxGeometry x="160" y="140" width="120" height="60" as="geometry" />
        </mxCell>
        <mxCell id="h78YweyeBX8pJEGmDvfS-6" value="Ülések listázása" style="ellipse;whiteSpace=wrap;html=1;fontFamily=Computer Modern;fontStyle=1" parent="1" vertex="1">
          <mxGeometry x="160" y="240" width="120" height="60" as="geometry" />
        </mxCell>
        <mxCell id="h78YweyeBX8pJEGmDvfS-10" value="Új film filvitele" style="ellipse;whiteSpace=wrap;html=1;fontFamily=Computer Modern;fontStyle=1" parent="1" vertex="1">
          <mxGeometry x="400" y="40" width="120" height="60" as="geometry" />
        </mxCell>
        <mxCell id="h78YweyeBX8pJEGmDvfS-16" value="Új előadás felvitele" style="ellipse;whiteSpace=wrap;html=1;fontFamily=Computer Modern;fontStyle=1" parent="1" vertex="1">
          <mxGeometry x="400" y="140" width="120" height="60" as="geometry" />
        </mxCell>
        <mxCell id="h78YweyeBX8pJEGmDvfS-17" value="Jegy kiadása" style="ellipse;whiteSpace=wrap;html=1;fontFamily=Computer Modern;fontStyle=1" parent="1" vertex="1">
          <mxGeometry x="400" y="240" width="120" height="60" as="geometry" />
        </mxCell>
        <mxCell id="h78YweyeBX8pJEGmDvfS-19" value="&lt;font style=&quot;font-size: 12px;&quot; face=&quot;Computer Modern&quot;&gt;&amp;lt;&amp;lt;precedes&amp;gt;&amp;gt;&lt;/font&gt;" style="rounded=0;orthogonalLoop=1;jettySize=auto;html=1;exitX=1;exitY=0.5;exitDx=0;exitDy=0;entryX=0;entryY=0.5;entryDx=0;entryDy=0;endArrow=open;endFill=0;dashed=1;" parent="1" source="h78YweyeBX8pJEGmDvfS-5" target="h78YweyeBX8pJEGmDvfS-16" edge="1">
          <mxGeometry relative="1" as="geometry">
            <mxPoint x="280" y="149.5" as="sourcePoint" />
            <mxPoint x="400" y="149.5" as="targetPoint" />
          </mxGeometry>
        </mxCell>
        <mxCell id="h78YweyeBX8pJEGmDvfS-20" value="&lt;font style=&quot;font-size: 12px;&quot; face=&quot;Computer Modern&quot;&gt;&amp;lt;&amp;lt;precedes&amp;gt;&amp;gt;&lt;/font&gt;" style="rounded=0;orthogonalLoop=1;jettySize=auto;html=1;exitX=1;exitY=0.5;exitDx=0;exitDy=0;entryX=0;entryY=0.5;entryDx=0;entryDy=0;endArrow=open;endFill=0;dashed=1;" parent="1" source="h78YweyeBX8pJEGmDvfS-6" target="h78YweyeBX8pJEGmDvfS-17" edge="1">
          <mxGeometry relative="1" as="geometry">
            <mxPoint x="280" y="229.5" as="sourcePoint" />
            <mxPoint x="400" y="229.5" as="targetPoint" />
          </mxGeometry>
        </mxCell>
        <mxCell id="sJmx9O3HWLLt6Ji2iKc_-1" value="&lt;font style=&quot;font-size: 12px;&quot; face=&quot;Computer Modern&quot;&gt;&amp;lt;&amp;lt;precedes&amp;gt;&amp;gt;&lt;/font&gt;" style="rounded=0;orthogonalLoop=1;jettySize=auto;html=1;exitX=0.5;exitY=1;exitDx=0;exitDy=0;endArrow=open;endFill=0;dashed=1;" edge="1" parent="1" source="h78YweyeBX8pJEGmDvfS-5" target="h78YweyeBX8pJEGmDvfS-6">
          <mxGeometry relative="1" as="geometry">
            <mxPoint x="290" y="280" as="sourcePoint" />
            <mxPoint x="410" y="280" as="targetPoint" />
          </mxGeometry>
        </mxCell>
      </root>
    </mxGraphModel>
  </diagram>
</mxfile>
